<?xml version="1.0" encoding="UTF-8"?><svg xmlns="http://www.w3.org/2000/svg" viewBox="0 0 597.04 118.94"><defs><style>.d{fill:#f7931e;}.e{fill:#fff;}.f{fill:#b479e0;}</style></defs><g id="a"/><g id="b"><g id="c"><path d="M539.88,16c7.66,0,14.6,1.66,20.83,4.98,6.23,3.32,11.17,8.21,14.83,14.67,3.66,6.46,5.5,14.4,5.5,23.82s-1.83,17.36-5.5,23.82c-3.66,6.46-8.61,11.35-14.83,14.67-6.23,3.32-13.17,4.98-20.83,4.98s-14.68-1.67-20.89-5.02c-6.21-3.35-11.14-8.25-14.79-14.71-3.65-6.46-5.48-14.37-5.48-23.74s1.82-17.36,5.48-23.82c3.65-6.46,8.58-11.35,14.79-14.67,6.21-3.32,13.17-4.98,20.89-4.98m-1,66.97c4.58,0,8.44-.9,11.58-2.71,3.14-1.81,5.51-4.45,7.12-7.94,1.61-3.49,2.42-7.77,2.42-12.84s-.81-9.35-2.42-12.84c-1.61-3.49-3.98-6.14-7.12-7.94-3.14-1.81-7-2.71-11.58-2.71s-8.44,.9-11.58,2.71c-3.14,1.81-5.51,4.45-7.12,7.94-1.61,3.49-2.42,7.77-2.42,12.84s.81,9.36,2.42,12.84c1.61,3.49,3.98,6.14,7.12,7.94,3.14,1.81,7,2.71,11.58,2.71m1-82.97c-10.34,0-19.9,2.31-28.43,6.87-8.91,4.76-16.03,11.79-21.18,20.91-5.01,8.86-7.55,19.52-7.55,31.69s2.54,22.75,7.55,31.61c5.14,9.1,12.25,16.14,21.13,20.92,8.54,4.6,18.12,6.94,28.48,6.94s19.82-2.31,28.35-6.86c8.92-4.75,16.06-11.78,21.23-20.9,5.03-8.87,7.58-19.54,7.58-31.72s-2.55-22.85-7.58-31.72c-5.17-9.11-12.31-16.14-21.22-20.9-8.54-4.55-18.08-6.86-28.36-6.86h0Z"/><path d="M457.67,16.55c5.27,0,10.12,.72,14.54,2.16,4.43,1.44,8.31,3.54,11.65,6.29,3.34,2.76,6.03,6.15,8.07,10.16,.58,1.14,1.09,2.32,1.53,3.55,1.82,4.99-1.87,10.27-7.18,10.27h-7.67c-3.11,0-5.89-1.9-7.07-4.78-.05-.13-.11-.26-.17-.39-.69-1.55-1.64-2.89-2.85-4.01-1.21-1.13-2.67-2-4.38-2.61-1.71-.61-3.65-.92-5.83-.92-3.8,0-7.01,.92-9.64,2.77-2.62,1.85-4.6,4.5-5.95,7.94-1.34,3.45-2.02,7.59-2.02,12.43,0,5.11,.69,9.38,2.06,12.81,1.37,3.44,3.36,6.02,5.97,7.74,2.61,1.72,5.74,2.59,9.41,2.59,2.09,0,3.97-.26,5.62-.79,1.66-.53,3.1-1.3,4.32-2.3,1.22-1,2.22-2.22,2.99-3.65,.1-.18,.19-.35,.27-.54,1.27-2.61,3.93-4.25,6.83-4.25h.05l7.54,.05c5.5,.04,9.24,5.75,6.92,10.74l-.05,.11c-1.71,3.65-4.14,7.02-7.27,10.1-3.14,3.08-7.01,5.56-11.63,7.44-4.62,1.87-9.98,2.81-16.09,2.81-7.66,0-14.52-1.64-20.59-4.93-6.07-3.29-10.86-8.12-14.38-14.5-3.52-6.38-5.28-14.19-5.28-23.43s1.79-17.12,5.38-23.49c3.59-6.37,8.42-11.19,14.5-14.46,6.08-3.27,12.87-4.91,20.37-4.91m0-16c-10.14,0-19.54,2.29-27.95,6.82-8.77,4.72-15.79,11.68-20.87,20.71-4.93,8.77-7.44,19.31-7.44,31.34s2.44,22.41,7.26,31.15c5,9.08,12,16.1,20.78,20.85,8.4,4.55,17.9,6.86,28.21,6.86,8.15,0,15.59-1.34,22.11-3.99,6.54-2.66,12.21-6.31,16.83-10.85,4.49-4.41,8.03-9.36,10.55-14.73l.07-.15c3.38-7.27,2.83-15.67-1.47-22.46-1.44-2.27-3.22-4.25-5.25-5.87,1.96-1.48,3.71-3.27,5.15-5.33,4.42-6.32,5.49-14.41,2.85-21.66-.66-1.82-1.44-3.6-2.3-5.3-3.03-5.98-7.12-11.12-12.16-15.27-4.88-4.03-10.56-7.11-16.89-9.17-6.01-1.95-12.57-2.94-19.49-2.94h0Z"/><path d="M367.88,16c7.66,0,14.6,1.66,20.83,4.98,6.23,3.32,11.17,8.21,14.83,14.67,3.66,6.46,5.5,14.4,5.5,23.82s-1.83,17.36-5.5,23.82c-3.66,6.46-8.61,11.35-14.83,14.67-6.23,3.32-13.17,4.98-20.83,4.98s-14.68-1.67-20.89-5.02c-6.21-3.35-11.14-8.25-14.79-14.71-3.65-6.46-5.48-14.37-5.48-23.74s1.82-17.36,5.48-23.82c3.65-6.46,8.58-11.35,14.79-14.67,6.21-3.32,13.17-4.98,20.89-4.98m-1,66.97c4.58,0,8.44-.9,11.58-2.71,3.14-1.81,5.51-4.45,7.12-7.94,1.61-3.49,2.42-7.77,2.42-12.84s-.81-9.35-2.42-12.84c-1.61-3.49-3.98-6.14-7.12-7.94-3.14-1.81-7-2.71-11.58-2.71s-8.44,.9-11.58,2.71c-3.14,1.81-5.51,4.45-7.12,7.94-1.61,3.49-2.42,7.77-2.42,12.84s.81,9.36,2.42,12.84c1.61,3.49,3.98,6.14,7.12,7.94,3.14,1.81,7,2.71,11.58,2.71m1-82.97c-10.34,0-19.9,2.31-28.43,6.87-8.91,4.76-16.03,11.79-21.18,20.91-5.01,8.86-7.55,19.52-7.55,31.69s2.54,22.75,7.55,31.61c5.14,9.1,12.25,16.14,21.13,20.92,8.54,4.6,18.12,6.94,28.48,6.94s19.82-2.31,28.35-6.86c8.92-4.75,16.06-11.78,21.23-20.9,5.03-8.87,7.58-19.54,7.58-31.72s-2.55-22.85-7.58-31.72c-5.17-9.11-12.31-16.14-21.22-20.9-8.54-4.55-18.08-6.86-28.36-6.86h0Z"/><path d="M308,16.98c6.08,0,11,4.92,11,11v63c0,6.08-4.92,11-11,11h-2.31c-3.61,0-6.99-1.77-9.05-4.74l-27.15-39.26h-.49v33c0,6.08-4.92,11-11,11h-1c-6.08,0-11-4.92-11-11V27.98c0-6.08,4.92-11,11-11h4.61c3.71,0,7.17,1.87,9.2,4.97l25.55,39.03h.63V27.98c0-6.08,4.92-11,11-11m0-16c-9.83,0-18.45,5.28-23.18,13.16l-.62-.95c-5.01-7.65-13.45-12.21-22.59-12.21h-4.61c-14.89,0-27,12.11-27,27v63c0,14.89,12.11,27,27,27h1c10.24,0,19.17-5.73,23.74-14.15l1.74,2.51c5.04,7.29,13.34,11.64,22.21,11.64h2.31c14.89,0,27-12.11,27-27V27.98c0-14.89-12.11-27-27-27h0Z"/><path d="M203.41,16.79c6.73,0,12.55,1.13,17.46,3.38,4.91,2.25,8.7,5.42,11.37,9.5,.03,.04,.05,.08,.08,.12,3.95,6.12-.63,14.18-7.9,14.18h-3.18c-3.3,0-6.24-1.8-8.04-4.56-.43-.67-.96-1.26-1.58-1.79-1.8-1.52-4.54-2.28-8.2-2.28-2.33,0-4.24,.28-5.72,.83-1.48,.56-2.57,1.31-3.28,2.26-.71,.95-1.07,2.03-1.1,3.26-.05,1,.13,1.91,.55,2.71,.42,.8,1.09,1.52,2.01,2.16,.92,.64,2.1,1.21,3.54,1.73,1.44,.52,3.15,.98,5.13,1.38l6.84,1.47c4.61,.98,8.56,2.27,11.84,3.87,3.28,1.6,5.97,3.48,8.06,5.64,2.09,2.16,3.63,4.58,4.62,7.26,.99,2.69,1.5,5.62,1.53,8.79-.03,5.48-1.4,10.12-4.11,13.92-2.71,3.8-6.59,6.69-11.62,8.67-5.03,1.98-11.08,2.97-18.13,2.97s-13.56-1.07-18.94-3.22c-5.39-2.14-9.56-5.45-12.53-9.91-.9-1.36-1.67-2.83-2.3-4.41-2.43-6.11,2.18-12.74,8.75-12.74h3.38c3.59,0,6.85,2.07,8.43,5.3,.19,.39,.41,.77,.64,1.13,1.14,1.74,2.75,3.05,4.82,3.95,2.08,.9,4.55,1.34,7.43,1.34,2.41,0,4.44-.3,6.06-.9,1.63-.6,2.86-1.42,3.7-2.48,.84-1.06,1.27-2.27,1.3-3.62-.03-1.28-.44-2.39-1.24-3.36-.8-.96-2.11-1.83-3.93-2.6-1.82-.77-4.27-1.5-7.37-2.18l-8.3-1.79c-7.38-1.6-13.19-4.28-17.44-8.04-4.25-3.76-6.36-8.89-6.33-15.4-.03-5.29,1.39-9.92,4.25-13.9,2.86-3.97,6.84-7.07,11.92-9.3,5.09-2.22,10.93-3.34,17.52-3.34m0-16c-8.78,0-16.83,1.57-23.93,4.68-7.73,3.38-13.95,8.3-18.5,14.61-4.86,6.74-7.3,14.57-7.27,23.26-.02,7.94,2.05,15.04,6.05,20.94-.81,.89-1.56,1.84-2.25,2.85-4.71,6.94-5.68,15.72-2.59,23.5,1.04,2.62,2.33,5.1,3.85,7.37,4.79,7.2,11.5,12.55,19.94,15.91,7.25,2.89,15.61,4.35,24.86,4.35s17.11-1.37,23.99-4.08c7.93-3.12,14.25-7.92,18.78-14.26,4.66-6.52,7.05-14.31,7.09-23.14,0-.07,0-.15,0-.22-.04-5.01-.89-9.78-2.51-14.19-1.57-4.25-3.91-8.14-6.97-11.6,1.03-1.24,1.95-2.6,2.74-4.05,4.41-8.09,4.05-17.9-.92-25.61l-.14-.21c-4.33-6.62-10.42-11.76-18.09-15.28-7-3.21-15.12-4.83-24.13-4.83h0Z"/><path d="M29.5,16.98c5.25,0,9.5,4.25,9.5,9.5v47c0,5.25,4.25,9.5,9.5,9.5h22c5.25,0,9.5,4.25,9.5,9.5s-4.25,9.5-9.5,9.5H25.5c-5.25,0-9.5-4.25-9.5-9.5V26.48c0-5.25,4.25-9.5,9.5-9.5h4M29.5,.98h-4C11.44,.98,0,12.42,0,26.48V92.48c0,14.06,11.44,25.5,25.5,25.5h45c14.06,0,25.5-11.44,25.5-25.5s-11.44-25.5-25.5-25.5h-15.5V26.48C55,12.42,43.56,.98,29.5,.98h0Z"/><path class="d" d="M163.04,59.47c0,9.42-1.83,17.36-5.5,23.82-3.66,6.46-8.61,11.35-14.83,14.67-6.23,3.32-13.17,4.98-20.83,4.98s-14.68-1.67-20.89-5.02c-6.21-3.35-11.14-8.25-14.79-14.71-3.65-6.46-5.48-14.37-5.48-23.74s1.82-17.36,5.48-23.82c3.65-6.46,8.58-11.35,14.79-14.67,6.21-3.32,13.17-4.98,20.89-4.98s14.6,1.66,20.83,4.98c6.23,3.32,11.17,8.21,14.83,14.67,3.66,6.46,5.5,14.4,5.5,23.82Zm-21.04,0c0-5.07-.81-9.35-2.42-12.84-1.61-3.49-3.98-6.14-7.12-7.94-3.14-1.81-7-2.71-11.58-2.71s-8.44,.9-11.58,2.71c-3.14,1.81-5.51,4.45-7.12,7.94-1.61,3.49-2.42,7.77-2.42,12.84s.81,9.36,2.42,12.84c1.61,3.49,3.98,6.14,7.12,7.94,3.14,1.81,7,2.71,11.58,2.71s8.44-.9,11.58-2.71c3.14-1.81,5.51-4.45,7.12-7.94,1.61-3.49,2.42-7.77,2.42-12.84Z"/><path d="M121.88,16c7.66,0,14.6,1.66,20.83,4.98,6.23,3.32,11.17,8.21,14.83,14.67,3.66,6.46,5.5,14.4,5.5,23.82s-1.83,17.36-5.5,23.82c-3.66,6.46-8.61,11.35-14.83,14.67-6.23,3.32-13.17,4.98-20.83,4.98s-14.68-1.67-20.89-5.02c-6.21-3.35-11.14-8.25-14.79-14.71-3.65-6.46-5.48-14.37-5.48-23.74s1.82-17.36,5.48-23.82c3.65-6.46,8.58-11.35,14.79-14.67,6.21-3.32,13.17-4.98,20.89-4.98m-1,66.97c4.58,0,8.44-.9,11.58-2.71,3.14-1.81,5.51-4.45,7.12-7.94,1.61-3.49,2.42-7.77,2.42-12.84s-.81-9.35-2.42-12.84c-1.61-3.49-3.98-6.14-7.12-7.94-3.14-1.81-7-2.71-11.58-2.71s-8.44,.9-11.58,2.71c-3.14,1.81-5.51,4.45-7.12,7.94-1.61,3.49-2.42,7.77-2.42,12.84s.81,9.36,2.42,12.84c1.61,3.49,3.98,6.14,7.12,7.94,3.14,1.81,7,2.71,11.58,2.71M121.88,0c-10.34,0-19.9,2.31-28.43,6.87-8.91,4.76-16.03,11.79-21.18,20.91-5.01,8.86-7.55,19.52-7.55,31.69s2.54,22.75,7.55,31.61c5.14,9.1,12.25,16.14,21.13,20.92,8.54,4.6,18.12,6.94,28.48,6.94s19.82-2.31,28.35-6.86c8.92-4.75,16.06-11.78,21.23-20.9,5.03-8.87,7.58-19.54,7.58-31.72s-2.55-22.85-7.58-31.72c-5.17-9.11-12.31-16.14-21.22-20.9-8.54-4.55-18.08-6.86-28.36-6.86h0Z"/><path class="e" d="M581.04,59.47c0,9.42-1.83,17.36-5.5,23.82-3.66,6.46-8.61,11.35-14.83,14.67-6.23,3.32-13.17,4.98-20.83,4.98s-14.68-1.67-20.89-5.02c-6.21-3.35-11.14-8.25-14.79-14.71-3.65-6.46-5.48-14.37-5.48-23.74s1.82-17.36,5.48-23.82c3.65-6.46,8.58-11.35,14.79-14.67,6.21-3.32,13.17-4.98,20.89-4.98s14.6,1.66,20.83,4.98c6.23,3.32,11.17,8.21,14.83,14.67,3.66,6.46,5.5,14.4,5.5,23.82Zm-21.04,0c0-5.07-.81-9.35-2.42-12.84-1.61-3.49-3.98-6.14-7.12-7.94-3.14-1.81-7-2.71-11.58-2.71s-8.44,.9-11.58,2.71c-3.14,1.81-5.51,4.45-7.12,7.94-1.61,3.49-2.42,7.77-2.42,12.84s.81,9.36,2.42,12.84c1.61,3.49,3.98,6.14,7.12,7.94,3.14,1.81,7,2.71,11.58,2.71s8.44-.9,11.58-2.71c3.14-1.81,5.51-4.45,7.12-7.94,1.61-3.49,2.42-7.77,2.42-12.84Z"/><path class="f" d="M221.23,43.98c-3.3,0-6.24-1.8-8.04-4.56-.43-.67-.96-1.26-1.58-1.79-1.8-1.52-4.54-2.28-8.2-2.28-2.33,0-4.24,.28-5.72,.83-1.48,.56-2.57,1.31-3.28,2.26s-1.07,2.03-1.1,3.26c-.05,1,.13,1.91,.55,2.71,.42,.8,1.09,1.52,2.01,2.16,.92,.64,2.1,1.21,3.54,1.73,1.44,.52,3.15,.98,5.13,1.38l6.84,1.47c4.61,.98,8.56,2.27,11.84,3.87,3.28,1.6,5.97,3.48,8.06,5.64,2.09,2.16,3.63,4.58,4.62,7.26,.99,2.69,1.5,5.62,1.53,8.79-.03,5.48-1.4,10.12-4.11,13.92-2.71,3.8-6.59,6.69-11.62,8.67-5.03,1.98-11.08,2.97-18.13,2.97s-13.56-1.07-18.94-3.22c-5.39-2.14-9.56-5.45-12.53-9.91-.9-1.36-1.67-2.83-2.3-4.41-2.43-6.11,2.18-12.74,8.75-12.74h3.38c3.59,0,6.85,2.07,8.43,5.3,.19,.39,.41,.77,.64,1.13,1.14,1.74,2.75,3.05,4.82,3.95s4.55,1.34,7.43,1.34c2.41,0,4.44-.3,6.06-.9,1.63-.6,2.86-1.42,3.7-2.48,.84-1.06,1.27-2.27,1.3-3.62-.03-1.28-.44-2.39-1.24-3.36-.8-.96-2.11-1.83-3.93-2.6s-4.27-1.5-7.37-2.18l-8.3-1.79c-7.38-1.6-13.19-4.28-17.44-8.04-4.25-3.76-6.36-8.89-6.33-15.4-.03-5.29,1.39-9.92,4.25-13.9,2.86-3.97,6.84-7.07,11.92-9.3,5.09-2.22,10.93-3.34,17.52-3.34s12.55,1.13,17.46,3.38c4.91,2.25,8.7,5.42,11.37,9.5,.03,.04,.05,.08,.08,.12,3.95,6.12-.63,14.18-7.9,14.18h-3.18Z"/><path class="f" d="M319,27.98v63c0,6.08-4.92,11-11,11h-2.31c-3.61,0-6.99-1.77-9.05-4.74l-27.15-39.26h-.49v33c0,6.08-4.92,11-11,11h-1c-6.08,0-11-4.92-11-11V27.98c0-6.08,4.92-11,11-11h4.61c3.71,0,7.17,1.87,9.2,4.97l25.55,39.03h.63V27.98c0-6.08,4.92-11,11-11h0c6.08,0,11,4.92,11,11Z"/><path class="e" d="M486.29,48.98h-7.67c-3.11,0-5.89-1.9-7.07-4.78-.05-.13-.11-.26-.17-.39-.69-1.55-1.64-2.89-2.85-4.01-1.21-1.13-2.67-2-4.38-2.61-1.71-.61-3.65-.92-5.83-.92-3.8,0-7.01,.92-9.64,2.77-2.62,1.85-4.6,4.5-5.95,7.94-1.34,3.45-2.02,7.59-2.02,12.43,0,5.11,.69,9.38,2.06,12.81,1.37,3.44,3.36,6.02,5.97,7.74,2.61,1.72,5.74,2.59,9.41,2.59,2.09,0,3.97-.26,5.62-.79,1.66-.53,3.1-1.3,4.32-2.3,1.22-1,2.22-2.22,2.99-3.65,.1-.18,.19-.35,.27-.54,1.27-2.63,3.97-4.27,6.89-4.25l7.54,.05c5.5,.04,9.24,5.75,6.92,10.74l-.05,.11c-1.71,3.65-4.14,7.02-7.27,10.1-3.14,3.08-7.01,5.56-11.63,7.44-4.62,1.87-9.98,2.81-16.09,2.81-7.66,0-14.52-1.64-20.59-4.93-6.07-3.29-10.86-8.12-14.38-14.5-3.52-6.38-5.28-14.19-5.28-23.43s1.79-17.12,5.38-23.49c3.59-6.37,8.42-11.19,14.5-14.46,6.08-3.27,12.87-4.91,20.37-4.91,5.27,0,10.12,.72,14.54,2.16,4.43,1.44,8.31,3.54,11.65,6.29,3.34,2.76,6.03,6.15,8.07,10.16,.58,1.14,1.09,2.32,1.53,3.55,1.82,4.99-1.87,10.27-7.18,10.27Z"/><path class="f" d="M409.04,59.47c0,9.42-1.83,17.36-5.5,23.82-3.66,6.46-8.61,11.35-14.83,14.67-6.23,3.32-13.17,4.98-20.83,4.98s-14.68-1.67-20.89-5.02c-6.21-3.35-11.14-8.25-14.79-14.71-3.65-6.46-5.48-14.37-5.48-23.74s1.82-17.36,5.48-23.82c3.65-6.46,8.58-11.35,14.79-14.67,6.21-3.32,13.17-4.98,20.89-4.98s14.6,1.66,20.83,4.98c6.23,3.32,11.17,8.21,14.83,14.67,3.66,6.46,5.5,14.4,5.5,23.82Zm-21.04,0c0-5.07-.81-9.35-2.42-12.84-1.61-3.49-3.98-6.14-7.12-7.94-3.14-1.81-7-2.71-11.58-2.71s-8.44,.9-11.58,2.71c-3.14,1.81-5.51,4.45-7.12,7.94-1.61,3.49-2.42,7.77-2.42,12.84s.81,9.36,2.42,12.84c1.61,3.49,3.98,6.14,7.12,7.94,3.14,1.81,7,2.71,11.58,2.71s8.44-.9,11.58-2.71c3.14-1.81,5.51-4.45,7.12-7.94,1.61-3.49,2.42-7.77,2.42-12.84Z"/><path class="d" d="M16,92.48V26.48c0-5.25,4.25-9.5,9.5-9.5h4c5.25,0,9.5,4.25,9.5,9.5v47c0,5.25,4.25,9.5,9.5,9.5h22c5.25,0,9.5,4.25,9.5,9.5h0c0,5.25-4.25,9.5-9.5,9.5H25.5c-5.25,0-9.5-4.25-9.5-9.5Z"/></g></g></svg>