<?xml version="1.0" encoding="UTF-8" standalone="no"?><!DOCTYPE svg PUBLIC "-//W3C//DTD SVG 1.1//EN" "http://www.w3.org/Graphics/SVG/1.1/DTD/svg11.dtd"><svg width="100%" height="100%" viewBox="0 0 628 246" version="1.1" xmlns="http://www.w3.org/2000/svg" xmlns:xlink="http://www.w3.org/1999/xlink" xml:space="preserve" xmlns:serif="http://www.serif.com/" style="fill-rule:evenodd;clip-rule:evenodd;stroke-linejoin:round;stroke-miterlimit:2;"><rect id="Wordmark" x="0" y="0" width="627.314" height="245.307" style="fill:none;"/><clipPath id="_clip1"><rect x="0" y="0" width="627.314" height="245.307"/></clipPath><g clip-path="url(#_clip1)"><g><path d="M577.39,245.307c-13.238,0 -484.044,0 -484.044,0c-6.699,0 -13.398,-0.397 -20.096,-1.278c-7.404,-0.973 -14.648,-2.755 -21.73,-5.35c-7.454,-2.732 -14.4,-6.405 -20.837,-11.015c-7.063,-5.058 -13.015,-11.235 -17.848,-18.541c-4.755,-7.189 -8.146,-15.02 -10.158,-23.5c-1.791,-7.547 -2.677,-15.095 -2.677,-22.642l0,-113.715c-0,-13.066 5.191,-25.597 14.43,-34.836c9.239,-9.239 21.77,-14.423 34.836,-14.423l0.002,-0.007c13.066,-0 472.199,0.007 480.632,0.007c8.433,0 16.788,2.106 25.065,3.803c9.049,1.855 17.585,4.98 25.609,9.364c8.242,4.503 15.616,10.293 22.105,17.394c6.4,7.005 11.488,14.704 15.294,23.076c3.694,8.127 6.219,16.666 7.562,25.621c1.187,7.915 1.779,15.829 1.779,23.744l0,93.699c0,13.238 -5.26,25.934 -14.626,35.294c-9.361,9.356 -35.298,13.305 -35.298,13.305Zm-450.707,-66.314c-0.347,-0.017 -0.695,-0.026 -1.044,-0.026l-32.293,0c-2.213,0 -4.488,-0.248 -6.824,-0.743c-2.336,-0.496 -4.427,-1.425 -6.271,-2.789c-1.844,-1.363 -3.258,-3.16 -4.242,-5.39c-0.983,-2.231 -1.475,-4.585 -1.475,-7.064l-0,-113.715c-0,-6.701 -2.662,-13.127 -7.4,-17.866c-4.739,-4.738 -11.165,-7.4 -17.866,-7.4l-0.002,0c-6.701,-0 -13.127,2.662 -17.866,7.4c-4.738,4.739 -7.4,11.165 -7.4,17.866l0,113.715c0,5.701 0.676,11.401 2.029,17.102c1.352,5.7 3.627,10.967 6.824,15.8c3.196,4.833 7.131,8.923 11.803,12.268c4.672,3.346 9.713,6.011 15.123,7.994c5.41,1.982 10.943,3.346 16.599,4.089c5.656,0.744 11.312,1.115 16.968,1.115l32.293,0c5.619,0 9.957,-19.686 7.133,-25.645c-2.555,-5.393 -4.585,-10.963 -6.089,-16.711Zm313.438,-121.358c-1.367,-2.893 -3.024,-5.644 -4.971,-8.254c-3.389,-4.541 -7.404,-8.407 -12.048,-11.598c-4.643,-3.19 -9.663,-5.706 -15.059,-7.547c-5.396,-1.841 -10.855,-3.13 -16.377,-3.866c-5.522,-0.737 -11.169,-1.105 -16.942,-1.105c-5.522,0 -11.106,0.307 -16.753,0.921c-5.648,0.613 -11.107,1.84 -16.377,3.681c-5.271,1.841 -10.228,4.357 -14.871,7.548c-4.644,3.191 -8.66,6.935 -12.048,11.23c-1.939,2.458 -3.611,5.097 -5.015,7.917c2.838,6.854 4.858,13.985 6.055,21.393c1.298,8.037 1.942,16.002 1.942,23.893l0,12.704c0.258,0.31 0.519,0.616 0.783,0.919c2.133,2.455 4.455,4.787 6.965,6.996c2.51,2.209 5.145,4.173 7.906,5.891c2.761,1.718 5.647,3.375 8.659,4.971c3.012,1.595 6.087,3.006 9.224,4.234c3.137,1.227 6.275,2.393 9.412,3.498l18.824,6.627c3.138,1.105 6.149,2.577 9.036,4.418c2.886,1.841 5.333,4.112 7.341,6.812c2.008,2.7 3.012,5.768 3.012,9.204c0,2.701 -0.878,5.155 -2.635,7.364c-1.757,2.209 -3.828,3.866 -6.212,4.971c-2.385,1.104 -4.957,1.841 -7.718,2.209c-2.761,0.368 -5.522,0.552 -8.283,0.552c-2.761,0 -5.584,-0.307 -8.471,-0.92c-2.011,-0.428 -9.17,-1.647 -13.327,-2.344c-2.084,-0.359 -4.143,-0.851 -6.163,-1.475l-28.773,-8.887c-0.468,-0.144 -0.941,-0.257 -1.416,-0.338c-0.035,0.223 -0.07,0.447 -0.106,0.67c-1.375,8.51 -3.835,16.653 -7.375,24.431c0.961,1.548 2.006,3.052 3.135,4.511c3.514,4.541 7.718,8.407 12.612,11.598c4.894,3.191 10.102,5.707 15.624,7.548c5.522,1.841 11.169,3.068 16.942,3.682c5.773,0.614 11.545,0.92 17.318,0.92c5.773,0 11.546,-0.306 17.318,-0.92c5.773,-0.614 11.358,-1.841 16.754,-3.682c5.396,-1.841 10.541,-4.234 15.436,-7.18c3.47,-2.088 6.625,-4.547 9.465,-7.376c-0.304,-2.224 -0.458,-4.478 -0.458,-6.748l-0,-64.983c-1.263,-1.412 -2.571,-2.78 -3.925,-4.103c-2.761,-2.7 -5.772,-5.155 -9.035,-7.364c-3.263,-2.209 -6.589,-4.173 -9.977,-5.891c-3.388,-1.718 -6.902,-3.314 -10.542,-4.787c-3.639,-1.472 -7.341,-2.822 -11.106,-4.05c-3.765,-1.227 -7.53,-2.393 -11.294,-3.497c-3.765,-1.105 -7.342,-2.578 -10.73,-4.419c-3.389,-1.841 -6.4,-4.357 -9.036,-7.548c-2.635,-3.191 -3.953,-6.627 -3.953,-10.309c0,-2.455 0.69,-4.786 2.071,-6.996c1.38,-2.209 3.137,-3.866 5.271,-4.97c2.133,-1.105 4.455,-1.902 6.965,-2.393c2.509,-0.491 5.019,-0.737 7.529,-0.737c2.761,0 5.459,0.307 8.095,0.921c2.229,0.519 10.521,2.204 13.022,2.711c0.481,0.098 0.958,0.22 1.427,0.364l31.295,9.666c1.92,0.593 3.922,0.652 5.812,0.225c1.141,-7.244 3.058,-14.215 5.746,-20.913Zm19.331,151.108c1.205,2.296 2.758,4.417 4.626,6.284c4.861,4.858 11.453,7.587 18.328,7.587l0.003,0c6.875,0 13.468,-2.729 18.329,-7.587c4.861,-4.859 7.592,-11.448 7.592,-18.319l-0,-93.699c-0,-3.738 0.252,-7.538 0.757,-11.4c0.504,-3.862 1.513,-7.538 3.027,-11.026c1.514,-3.489 3.91,-6.479 7.19,-8.971c3.28,-2.492 6.812,-3.737 10.596,-3.737c3.784,-0 7.316,1.245 10.596,3.737c3.279,2.492 5.676,5.482 7.19,8.971c1.513,3.488 2.523,7.164 3.027,11.026c0.505,3.862 0.757,7.662 0.757,11.4l0,93.699c0,6.871 2.731,13.46 7.592,18.319c4.861,4.858 11.454,7.587 18.328,7.587l0.004,0c6.874,0 13.467,-2.729 18.328,-7.587c4.861,-4.859 7.592,-11.448 7.592,-18.319l0,-93.699c0,-6.728 -0.504,-13.456 -1.514,-20.184c-1.009,-6.728 -2.901,-13.144 -5.676,-19.249c-2.775,-6.105 -6.496,-11.711 -11.163,-16.819c-4.668,-5.108 -9.966,-9.282 -15.894,-12.522c-5.929,-3.239 -12.236,-5.544 -18.921,-6.914c-6.686,-1.371 -13.435,-2.056 -20.246,-2.056c-6.812,0 -13.56,0.685 -20.246,2.056c-6.685,1.37 -12.992,3.675 -18.921,6.914c-5.929,3.24 -11.227,7.414 -15.894,12.522c-3.502,3.833 -6.472,7.947 -8.909,12.341l1.224,7.735l-1.069,9.364l-3.51,8.748l-5.669,7.425c-0.28,3.546 -0.42,7.093 -0.42,10.639l-0,20.199c2.921,3.971 5.418,8.149 7.498,12.53c2.367,4.986 4.194,10.236 5.469,15.755c1.287,5.576 1.932,11.242 1.932,16.998c0,8.337 -1.381,16.494 -4.161,24.468c-1.957,5.615 -4.548,10.877 -7.772,15.784Z"/><path d="M146.829,200.159c-0,5.62 -2.233,11.01 -6.207,14.984c-3.974,3.974 -9.364,6.206 -14.983,6.206c-22.941,0 -32.293,0 -32.293,0c-5.656,0 -11.312,-0.371 -16.968,-1.115c-5.656,-0.743 -11.189,-2.107 -16.599,-4.089c-5.41,-1.983 -10.451,-4.648 -15.123,-7.994c-4.672,-3.345 -8.607,-7.435 -11.803,-12.268c-3.197,-4.833 -5.472,-10.1 -6.824,-15.8c-1.353,-5.701 -2.029,-11.401 -2.029,-17.102l0,-113.715c-0,-6.701 2.662,-13.127 7.4,-17.866c4.739,-4.738 11.165,-7.4 17.866,-7.4c0.001,0 0.001,0 0.002,0c6.701,-0 13.127,2.662 17.866,7.4c4.738,4.739 7.4,11.165 7.4,17.866c-0,40.073 -0,113.715 -0,113.715c-0,2.479 0.492,4.833 1.475,7.064c0.984,2.23 2.398,4.027 4.242,5.39c1.844,1.364 3.935,2.293 6.271,2.789c2.336,0.495 4.611,0.743 6.824,0.743c-0,0 9.352,0 32.293,0c5.619,0 11.009,2.233 14.983,6.207c3.974,3.974 6.207,9.363 6.207,14.983l-0,0.002Z" style="fill:#fe8000;fill-rule:nonzero;"/><path d="M482.406,222.614c-6.875,0 -13.467,-2.729 -18.328,-7.587c-4.862,-4.859 -7.592,-11.448 -7.592,-18.319c-0,-35.171 -0,-93.699 -0,-93.699c-0,-6.728 0.504,-13.456 1.513,-20.184c1.009,-6.728 2.902,-13.144 5.677,-19.249c2.775,-6.105 6.496,-11.711 11.163,-16.819c4.667,-5.108 9.965,-9.282 15.894,-12.522c5.929,-3.239 12.236,-5.544 18.921,-6.914c6.686,-1.371 13.434,-2.056 20.246,-2.056c6.811,0 13.56,0.685 20.246,2.056c6.685,1.37 12.992,3.675 18.921,6.914c5.928,3.24 11.226,7.414 15.894,12.522c4.667,5.108 8.388,10.714 11.163,16.819c2.775,6.105 4.667,12.521 5.676,19.249c1.01,6.728 1.514,13.456 1.514,20.184l0,93.699c0,6.871 -2.731,13.46 -7.592,18.319c-4.861,4.858 -11.454,7.587 -18.328,7.587c-0.001,0 -0.002,0 -0.004,0c-6.874,0 -13.467,-2.729 -18.328,-7.587c-4.861,-4.859 -7.592,-11.448 -7.592,-18.319c0,-35.171 0,-93.699 0,-93.699c0,-3.738 -0.252,-7.538 -0.757,-11.4c-0.504,-3.862 -1.514,-7.538 -3.027,-11.026c-1.514,-3.489 -3.911,-6.479 -7.19,-8.971c-3.28,-2.492 -6.812,-3.737 -10.596,-3.737c-3.784,-0 -7.316,1.245 -10.596,3.737c-3.28,2.492 -5.676,5.482 -7.19,8.971c-1.514,3.488 -2.523,7.164 -3.027,11.026c-0.505,3.862 -0.757,7.662 -0.757,11.4l-0,93.699c-0,6.871 -2.731,13.46 -7.592,18.319c-4.861,4.858 -11.454,7.587 -18.329,7.587c-0.001,0 -0.002,0 -0.003,0Z" style="fill:#3fd4b0;fill-rule:nonzero;"/><path d="M373.971,222.614c-5.773,0 -11.545,-0.306 -17.318,-0.92c-5.773,-0.614 -11.42,-1.841 -16.942,-3.682c-5.522,-1.841 -10.73,-4.357 -15.624,-7.548c-4.894,-3.191 -9.098,-7.057 -12.612,-11.598c-3.514,-4.541 -6.212,-9.511 -8.094,-14.911c-0.001,-0.001 -0.001,-0.001 -0.001,-0.002c-1.388,-3.982 -0.416,-8.407 2.512,-11.442c2.928,-3.034 7.315,-4.163 11.345,-2.919c10.474,3.235 23.048,7.119 28.773,8.887c2.02,0.624 4.079,1.116 6.163,1.475c4.157,0.697 11.316,1.916 13.327,2.344c2.887,0.613 5.71,0.92 8.471,0.92c2.761,0 5.522,-0.184 8.283,-0.552c2.761,-0.368 5.333,-1.105 7.718,-2.209c2.384,-1.105 4.455,-2.762 6.212,-4.971c1.757,-2.209 2.635,-4.663 2.635,-7.364c0,-3.436 -1.004,-6.504 -3.012,-9.204c-2.008,-2.7 -4.455,-4.971 -7.341,-6.812c-2.887,-1.841 -5.898,-3.313 -9.036,-4.418c-3.137,-1.105 -15.687,-5.523 -18.824,-6.627c-3.137,-1.105 -6.275,-2.271 -9.412,-3.498c-3.137,-1.228 -6.212,-2.639 -9.224,-4.234c-3.012,-1.596 -5.898,-3.253 -8.659,-4.971c-2.761,-1.718 -5.396,-3.682 -7.906,-5.891c-2.51,-2.209 -4.832,-4.541 -6.965,-6.996c-2.134,-2.454 -4.079,-5.093 -5.836,-7.916c-1.757,-2.822 -3.262,-5.768 -4.517,-8.836c-1.255,-3.068 -2.197,-6.259 -2.824,-9.573c-0.627,-3.314 -0.941,-6.566 -0.941,-9.757c-0,-5.4 0.878,-10.8 2.635,-16.2c1.757,-5.401 4.33,-10.248 7.718,-14.544c3.388,-4.295 7.404,-8.039 12.048,-11.23c4.643,-3.191 9.6,-5.707 14.871,-7.548c5.27,-1.841 10.729,-3.068 16.377,-3.681c5.647,-0.614 11.231,-0.921 16.753,-0.921c5.773,0 11.42,0.368 16.942,1.105c5.522,0.736 10.981,2.025 16.377,3.866c5.396,1.841 10.416,4.357 15.059,7.547c4.644,3.191 8.659,7.057 12.048,11.598c3.388,4.541 5.898,9.512 7.529,14.912c0.001,0 0.001,0.001 0.001,0.001c1.204,3.989 0.11,8.317 -2.845,11.254c-2.956,2.938 -7.291,4.005 -11.272,2.775c-12.418,-3.835 -27.842,-8.599 -31.295,-9.666c-0.469,-0.144 -0.946,-0.266 -1.427,-0.364c-2.501,-0.507 -10.793,-2.192 -13.022,-2.711c-2.636,-0.614 -5.334,-0.921 -8.095,-0.921c-2.51,0 -5.02,0.246 -7.529,0.737c-2.51,0.491 -4.832,1.288 -6.965,2.393c-2.134,1.104 -3.891,2.761 -5.271,4.97c-1.381,2.21 -2.071,4.541 -2.071,6.996c0,3.682 1.318,7.118 3.953,10.309c2.636,3.191 5.647,5.707 9.036,7.548c3.388,1.841 6.965,3.314 10.73,4.419c3.764,1.104 7.529,2.27 11.294,3.497c3.765,1.228 7.467,2.578 11.106,4.05c3.64,1.473 7.154,3.069 10.542,4.787c3.388,1.718 6.714,3.682 9.977,5.891c3.263,2.209 6.274,4.664 9.035,7.364c2.761,2.7 5.334,5.584 7.718,8.652c2.385,3.068 4.393,6.321 6.024,9.757c1.631,3.437 2.886,7.057 3.765,10.862c0.878,3.804 1.317,7.67 1.317,11.598c0,5.645 -0.941,11.168 -2.823,16.568c-1.883,5.4 -4.643,10.309 -8.283,14.728c-3.639,4.418 -7.906,8.1 -12.8,11.045c-4.895,2.946 -10.04,5.339 -15.436,7.18c-5.396,1.841 -10.981,3.068 -16.754,3.682c-5.772,0.614 -11.545,0.92 -17.318,0.92Z" style="fill:#3fd4b0;fill-rule:nonzero;"/></g><g><path d="M220.243,222.614c-6.784,0 -13.447,-0.613 -19.989,-1.84c-6.542,-1.228 -12.781,-3.437 -18.717,-6.628c-5.936,-3.191 -11.206,-7.241 -15.81,-12.15c-4.603,-4.909 -8.359,-10.432 -11.266,-16.569c-2.908,-6.136 -4.907,-12.579 -5.997,-19.33c-1.09,-6.75 -1.635,-13.438 -1.635,-20.066l-0,-13.183c-0,-6.627 0.545,-13.316 1.635,-20.066c1.09,-6.75 3.089,-13.193 5.997,-19.33c2.907,-6.136 6.663,-11.659 11.266,-16.568c4.604,-4.91 9.874,-8.96 15.81,-12.151c5.936,-3.191 12.175,-5.4 18.717,-6.627c6.542,-1.227 13.205,-1.841 19.989,-1.841c6.784,0 13.447,0.614 19.989,1.841c6.542,1.227 12.781,3.436 18.717,6.627c5.936,3.191 11.206,7.241 15.809,12.151c4.604,4.909 8.359,10.432 11.267,16.568c2.907,6.137 4.906,12.58 5.997,19.33c1.09,6.75 1.635,13.439 1.635,20.066l0,13.183c0,6.628 -0.545,13.316 -1.635,20.066c-1.091,6.751 -3.09,13.194 -5.997,19.33c-2.908,6.137 -6.663,11.66 -11.267,16.569c-4.603,4.909 -9.873,8.959 -15.809,12.15c-5.936,3.191 -12.175,5.4 -18.717,6.628c-6.542,1.227 -13.205,1.84 -19.989,1.84Zm-0,-41.973c3.876,-0 7.571,-1.043 11.085,-3.13c3.513,-2.086 6.178,-4.909 7.995,-8.468c1.817,-3.559 3.029,-7.302 3.635,-11.23c0.605,-3.927 0.908,-7.855 0.908,-11.782l0,-13.183c0,-3.927 -0.303,-7.854 -0.908,-11.782c-0.606,-3.927 -1.818,-7.67 -3.635,-11.229c-1.817,-3.56 -4.482,-6.382 -7.995,-8.469c-3.514,-2.086 -7.209,-3.129 -11.085,-3.129c-3.877,-0 -7.572,1.043 -11.085,3.129c-3.513,2.087 -6.178,4.909 -7.996,8.469c-1.817,3.559 -3.028,7.302 -3.634,11.229c-0.606,3.928 -0.909,7.855 -0.909,11.782l0,13.183c0,3.927 0.303,7.855 0.909,11.782c0.606,3.928 1.817,7.671 3.634,11.23c1.818,3.559 4.483,6.382 7.996,8.468c3.513,2.087 7.208,3.13 11.085,3.13Z" style="fill:#fe8000;"/><path d="M198.865,50.228c-6.506,1.239 -12.794,-3.037 -14.034,-9.543c-1.239,-6.506 3.037,-12.794 9.543,-14.033l47.247,-9c6.506,-1.24 12.794,3.036 14.033,9.542c1.24,6.506 -3.036,12.794 -9.542,14.034l-47.247,9Z" style="fill:#fe8000;"/></g></g></svg>