<?xml version="1.0" encoding="UTF-8" standalone="no"?>
<!DOCTYPE svg PUBLIC "-//W3C//DTD SVG 1.1//EN" "http://www.w3.org/Graphics/SVG/1.1/DTD/svg11.dtd">
<svg width="100%" height="100%" viewBox="0 0 494 76" version="1.1" xmlns="http://www.w3.org/2000/svg" xmlns:xlink="http://www.w3.org/1999/xlink" xml:space="preserve" xmlns:serif="http://www.serif.com/" style="fill-rule:evenodd;clip-rule:evenodd;stroke-linejoin:round;stroke-miterlimit:2;">
    <style> 
    .lopez {
        fill: #f25e0d;
        fill-rule: nonzero;
    }
    .snowhill {
        fill: #00967f;
        fill-rule: nonzero;
    }
    .co {
        fill: #000000;
    }

    @media (prefers-color-scheme: dark) {
        .lopez {
            fill: #f25e0d;
        }
        .snowhill {
            fill: #0DF2C9;
        }
        .co {
            fill: #ffffff;
        }
    }

    </style>
    <rect id="WordmarkForLight" x="-0" y="0" width="493.01" height="75.966" style="fill:none;"/>
    <clipPath id="_clip1">
        <rect x="-0" y="0" width="493.01" height="75.966"/>
    </clipPath>
    <g clip-path="url(#_clip1)">
        <g>
            <path d="M-0.007,74.798l0,-73.596l20.524,0l-0,56.209l31.673,0l0,17.387l-52.197,-0Z" class="lopez" />
            <path d="M116.758,63.531c-2.68,3.357 -5.899,6.05 -9.657,8.081c-5.394,2.914 -11.43,4.371 -18.107,4.371c-6.676,0 -12.72,-1.465 -18.13,-4.396c-5.411,-2.93 -9.695,-7.219 -12.852,-12.867c-3.158,-5.647 -4.736,-12.537 -4.736,-20.671c-0,-8.199 1.578,-15.13 4.736,-20.794c3.157,-5.664 7.441,-9.953 12.852,-12.867c5.41,-2.914 11.454,-4.371 18.13,-4.371c6.677,-0 12.713,1.457 18.107,4.371c4.13,2.232 7.609,5.269 10.438,9.113c-0.87,3.147 -1.313,6.487 -1.313,10.027c-0,5.783 1.207,10.985 3.582,15.622c-3.048,2.746 -4.964,6.724 -4.964,11.149c0,4.828 0.664,9.232 1.914,13.232Zm-27.764,-5.329c3.224,-0 5.954,-0.799 8.19,-2.396c2.237,-1.597 3.931,-3.902 5.082,-6.915c1.151,-3.013 1.726,-6.627 1.726,-10.842c0,-4.247 -0.575,-7.886 -1.726,-10.915c-1.151,-3.03 -2.845,-5.343 -5.082,-6.94c-2.236,-1.597 -4.966,-2.396 -8.19,-2.396c-3.19,0 -5.903,0.799 -8.14,2.396c-2.236,1.597 -3.939,3.91 -5.106,6.94c-1.168,3.029 -1.752,6.668 -1.752,10.915c0,4.215 0.584,7.829 1.752,10.842c1.167,3.013 2.87,5.318 5.106,6.915c2.237,1.597 4.95,2.396 8.14,2.396Z" class="lopez"/>
            <path d="M161.419,75.983c-6.775,0 -12.515,-0.988 -17.218,-2.963c-4.703,-1.976 -8.272,-4.882 -10.706,-8.718c-2.434,-3.836 -3.651,-8.504 -3.651,-14.003l19.438,-0c0,1.976 0.521,3.671 1.561,5.087c1.04,1.416 2.477,2.503 4.31,3.26c1.834,0.758 3.989,1.136 6.466,1.136c2.18,0 4.08,-0.271 5.698,-0.815c1.619,-0.543 2.882,-1.3 3.79,-2.272c0.909,-0.971 1.363,-2.099 1.363,-3.383c0,-1.186 -0.427,-2.223 -1.283,-3.112c-0.855,-0.889 -2.17,-1.663 -3.946,-2.321c-1.777,-0.659 -4.046,-1.252 -6.809,-1.779l-7.301,-1.383c-7.105,-1.35 -12.532,-3.852 -16.281,-7.507c-3.75,-3.655 -5.624,-8.216 -5.624,-13.682c-0,-4.676 1.266,-8.776 3.798,-12.299c2.533,-3.523 6.052,-6.273 10.558,-8.249c4.506,-1.975 9.736,-2.963 15.689,-2.963c6.118,-0 11.38,0.971 15.787,2.914c4.408,1.943 7.828,4.742 10.262,8.397c2.434,3.655 3.733,8.051 3.898,13.188l-18.847,-0c-0.23,-2.569 -1.307,-4.594 -3.231,-6.076c-1.924,-1.481 -4.416,-2.222 -7.474,-2.222c-1.908,-0 -3.602,0.271 -5.082,0.815c-1.48,0.543 -2.639,1.284 -3.478,2.222c-0.839,0.939 -1.258,2.034 -1.258,3.285c-0,1.185 0.378,2.19 1.135,3.013c0.756,0.823 1.948,1.539 3.576,2.149c1.628,0.609 3.709,1.144 6.241,1.605l5.921,1.086c4.21,0.791 7.836,1.795 10.878,3.013c3.042,1.219 5.534,2.701 7.474,4.446c1.941,1.745 3.372,3.77 4.293,6.075c0.921,2.305 1.381,4.923 1.381,7.854c0,5.136 -1.225,9.508 -3.675,13.113c-2.451,3.606 -6.011,6.356 -10.682,8.249c-4.67,1.893 -10.327,2.84 -16.971,2.84Z" class="snowhill" />
            <path d="M161.419,75.983c-6.775,0 -12.515,-0.988 -17.218,-2.963c-4.703,-1.976 -8.272,-4.882 -10.706,-8.718c-2.434,-3.836 -3.651,-8.504 -3.651,-14.003l19.438,-0c0,1.976 0.521,3.671 1.561,5.087c1.04,1.416 2.477,2.503 4.31,3.26c1.834,0.758 3.989,1.136 6.466,1.136c2.18,0 4.08,-0.271 5.698,-0.815c1.619,-0.543 2.882,-1.3 3.79,-2.272c0.909,-0.971 1.363,-2.099 1.363,-3.383c0,-1.186 -0.427,-2.223 -1.283,-3.112c-0.855,-0.889 -2.17,-1.663 -3.946,-2.321c-1.777,-0.659 -4.046,-1.252 -6.809,-1.779l-7.301,-1.383c-7.105,-1.35 -12.532,-3.852 -16.281,-7.507c-3.75,-3.655 -5.624,-8.216 -5.624,-13.682c-0,-4.676 1.266,-8.776 3.798,-12.299c2.533,-3.523 6.052,-6.273 10.558,-8.249c4.506,-1.975 9.736,-2.963 15.689,-2.963c6.118,-0 11.38,0.971 15.787,2.914c4.408,1.943 7.828,4.742 10.262,8.397c2.434,3.655 3.733,8.051 3.898,13.188l-18.847,-0c-0.23,-2.569 -1.307,-4.594 -3.231,-6.076c-1.924,-1.481 -4.416,-2.222 -7.474,-2.222c-1.908,-0 -3.602,0.271 -5.082,0.815c-1.48,0.543 -2.639,1.284 -3.478,2.222c-0.839,0.939 -1.258,2.034 -1.258,3.285c-0,1.185 0.378,2.19 1.135,3.013c0.756,0.823 1.948,1.539 3.576,2.149c1.628,0.609 3.709,1.144 6.241,1.605l5.921,1.086c4.21,0.791 7.836,1.795 10.878,3.013c3.042,1.219 5.534,2.701 7.474,4.446c1.941,1.745 3.372,3.77 4.293,6.075c0.921,2.305 1.381,4.923 1.381,7.854c0,5.136 -1.225,9.508 -3.675,13.113c-2.451,3.606 -6.011,6.356 -10.682,8.249c-4.67,1.893 -10.327,2.84 -16.971,2.84Z" class="snowhill" />
            <path d="M199.851,74.798l0,-73.596l20.919,0l17.908,28.895c0.79,1.251 1.785,2.955 2.985,5.112c1.201,2.157 2.467,4.47 3.799,6.94c1.332,2.47 2.574,4.791 3.725,6.964l-2.467,5.73c-0.164,-2.667 -0.296,-5.705 -0.395,-9.113c-0.098,-3.408 -0.172,-6.701 -0.222,-9.879c-0.049,-3.177 -0.074,-5.737 -0.074,-7.68l0,-26.969l20.524,0l-0,73.596l-20.918,-0l-16.725,-26.87c-0.987,-1.614 -2.212,-3.68 -3.676,-6.199c-1.463,-2.519 -3.025,-5.326 -4.686,-8.421c-1.661,-3.096 -3.331,-6.257 -5.008,-9.484l4.046,-1.185c0.263,3.457 0.452,6.849 0.567,10.175c0.115,3.326 0.181,6.306 0.197,8.94c0.017,2.634 0.025,4.692 0.025,6.174l-0,26.87l-20.524,-0Z" class="snowhill" />
            <path d="M337.344,61.664c-2.933,4.238 -6.615,7.554 -11.046,9.948c-5.394,2.914 -11.429,4.371 -18.106,4.371c-6.677,0 -12.72,-1.465 -18.131,-4.396c-5.41,-2.93 -9.694,-7.219 -12.852,-12.867c-3.157,-5.647 -4.736,-12.537 -4.736,-20.671c0,-8.199 1.579,-15.13 4.736,-20.794c3.158,-5.664 7.442,-9.953 12.852,-12.867c5.411,-2.914 11.454,-4.371 18.131,-4.371c6.677,-0 12.712,1.457 18.106,4.371c4.427,2.392 8.106,5.709 11.038,9.953c-2.905,6.761 -4.478,14.646 -4.478,23.708c-0,9.013 1.574,16.866 4.486,23.615Zm-29.152,-3.462c3.223,-0 5.953,-0.799 8.19,-2.396c2.236,-1.597 3.93,-3.902 5.081,-6.915c1.152,-3.013 1.727,-6.627 1.727,-10.842c0,-4.247 -0.575,-7.886 -1.727,-10.915c-1.151,-3.03 -2.845,-5.343 -5.081,-6.94c-2.237,-1.597 -4.967,-2.396 -8.19,-2.396c-3.19,0 -5.904,0.799 -8.14,2.396c-2.237,1.597 -3.939,3.91 -5.106,6.94c-1.168,3.029 -1.752,6.668 -1.752,10.915c0,4.215 0.584,7.829 1.752,10.842c1.167,3.013 2.869,5.318 5.106,6.915c2.236,1.597 4.95,2.396 8.14,2.396Z" class="snowhill" />
            <path d="M383.577,75.983c-6.677,0 -12.721,-1.465 -18.131,-4.396c-5.411,-2.93 -9.694,-7.219 -12.852,-12.867c-3.157,-5.647 -4.736,-12.537 -4.736,-20.671c-0,-8.199 1.579,-15.13 4.736,-20.794c3.158,-5.664 7.441,-9.953 12.852,-12.867c5.41,-2.914 11.454,-4.371 18.131,-4.371c4.703,-0 9.028,0.691 12.975,2.074c3.947,1.383 7.409,3.343 10.385,5.878c2.977,2.536 5.394,5.582 7.252,9.138c1.859,3.556 3.035,7.508 3.528,11.854l-20.672,0c-0.296,-1.745 -0.814,-3.309 -1.554,-4.692c-0.74,-1.383 -1.669,-2.552 -2.787,-3.507c-1.118,-0.955 -2.409,-1.688 -3.873,-2.198c-1.464,-0.51 -3.083,-0.766 -4.86,-0.766c-3.321,0 -6.125,0.791 -8.411,2.371c-2.286,1.581 -4.021,3.878 -5.205,6.89c-1.184,3.013 -1.776,6.677 -1.776,10.99c-0,4.281 0.584,7.92 1.751,10.916c1.168,2.997 2.903,5.285 5.205,6.866c2.302,1.58 5.115,2.371 8.436,2.371c1.777,-0 3.388,-0.247 4.835,-0.741c1.447,-0.494 2.73,-1.227 3.848,-2.198c1.119,-0.972 2.048,-2.141 2.788,-3.507c0.74,-1.367 1.274,-2.906 1.603,-4.618l20.672,-0c-0.526,4.346 -1.71,8.289 -3.552,11.829c-1.842,3.54 -4.26,6.578 -7.253,9.113c-2.993,2.536 -6.454,4.487 -10.385,5.853c-3.93,1.367 -8.247,2.05 -12.95,2.05Z" class="co"/>
            <path d="M457.284,75.983c-6.677,0 -12.72,-1.465 -18.131,-4.396c-5.41,-2.93 -9.694,-7.219 -12.852,-12.867c-3.157,-5.647 -4.736,-12.537 -4.736,-20.671c0,-8.199 1.579,-15.13 4.736,-20.794c3.158,-5.664 7.442,-9.953 12.852,-12.867c5.411,-2.914 11.454,-4.371 18.131,-4.371c6.677,-0 12.712,1.457 18.106,4.371c5.394,2.914 9.678,7.203 12.852,12.867c3.174,5.664 4.761,12.595 4.761,20.794c-0,8.167 -1.587,15.073 -4.761,20.721c-3.174,5.647 -7.458,9.928 -12.852,12.842c-5.394,2.914 -11.429,4.371 -18.106,4.371Zm-0,-17.781c3.223,-0 5.953,-0.799 8.19,-2.396c2.236,-1.597 3.93,-3.902 5.081,-6.915c1.151,-3.013 1.727,-6.627 1.727,-10.842c-0,-4.247 -0.576,-7.886 -1.727,-10.915c-1.151,-3.03 -2.845,-5.343 -5.081,-6.94c-2.237,-1.597 -4.967,-2.396 -8.19,-2.396c-3.19,0 -5.904,0.799 -8.14,2.396c-2.237,1.597 -3.939,3.91 -5.107,6.94c-1.167,3.029 -1.751,6.668 -1.751,10.915c-0,4.215 0.584,7.829 1.751,10.842c1.168,3.013 2.87,5.318 5.107,6.915c2.236,1.597 4.95,2.396 8.14,2.396Z"  class="co" />
        </g>
    </g>
</svg>
